<svg fill="#000000" height="200px" width="200px" version="1.1" id="Layer_1" xmlns="http://www.w3.org/2000/svg" xmlns:xlink="http://www.w3.org/1999/xlink" viewBox="-107.52 -107.52 727.04 727.04" xml:space="preserve" stroke="#000000"><g id="SVGRepo_bgCarrier" stroke-width="0"><rect x="-107.52" y="-107.52" width="727.04" height="727.04" rx="363.52" fill="#aee4ff" strokewidth="0"></rect></g><g id="SVGRepo_tracerCarrier" stroke-linecap="round" stroke-linejoin="round"></g><g id="SVGRepo_iconCarrier"> <g> <g> <path d="M477.521,46.197l-11.742-11.747c-45.899-45.896-120.577-45.898-166.474,0L139.686,194.069l10.766,10.765L310.07,45.216 c39.959-39.959,104.982-39.959,144.941,0l11.743,11.747c19.358,19.358,30.019,45.095,30.019,72.471s-10.661,53.113-30.021,72.47 L201.928,466.73c-19.357,19.358-45.094,30.018-72.471,30.018c-27.375,0-53.112-10.66-72.47-30.018l-11.746-11.745 c-19.357-19.358-30.017-45.095-30.017-72.471c0-27.376,10.661-53.113,30.017-72.47l87.712-87.714l-10.766-10.765l-87.712,87.714 C12.244,321.51,0,351.071,0,382.514c0,31.443,12.244,61.003,34.477,83.237l11.746,11.745 c22.232,22.233,51.793,34.477,83.236,34.477c31.444,0,61.003-12.244,83.237-34.477L477.52,212.668 c22.234-22.232,34.48-51.792,34.48-83.236C512,97.99,499.754,68.43,477.521,46.197z"></path> </g> </g> <g> <g> <path d="M451.279,72.44l-10.766,10.765c12.832,12.831,19.778,30.625,19.062,48.822l15.213,0.6 C475.671,110.201,467.103,88.264,451.279,72.44z"></path> </g> </g> <g> <g> <path d="M415.058,134.246l-18.667,18.667l-37.328-37.329l18.665-18.665l-44.202-44.202l-76.089,76.09l44.202,44.201l18.665-18.665 l37.331,37.328l-18.666,18.666l44.2,44.201l76.09-76.087L415.058,134.246z M309.536,143.577v0.001l-7.898,7.899l-22.671-22.67 l54.558-54.559l22.671,22.671l-7.899,7.899l-0.001-0.002L309.536,143.577z M331.068,143.578l17.23-17.23l37.327,37.33 l-17.227,17.227L331.068,143.578z M360.499,210.336l7.9-7.9l38.759-38.759l7.901-7.901l22.669,22.672l-54.559,54.557 L360.499,210.336z"></path> </g> </g> <g> <g> <path d="M210.364,338.942l-18.665,18.664l-37.33-37.331l18.666-18.665l-44.202-44.201l-76.089,76.089L96.944,377.7l18.665-18.664 l37.331,37.331l-18.666,18.665l44.202,44.201l76.089-76.09L210.364,338.942z M104.843,348.27l-7.899,7.899l-22.67-22.67 l54.558-54.558l22.671,22.671l-7.899,7.899l-0.004-0.003l-38.76,38.762L104.843,348.27z M126.374,348.27l17.23-17.229 l37.328,37.327l-17.23,17.23L126.374,348.27z M155.805,415.031l54.559-54.558l22.67,22.669l-54.558,54.559L155.805,415.031z"></path> </g> </g> </g></svg>